<mxfile host="app.diagrams.net" modified="2021-02-26T14:51:10.031Z" agent="5.0 (Macintosh; Intel Mac OS X 10_15_7) AppleWebKit/537.36 (KHTML, like Gecko) Chrome/88.0.4324.192 Safari/537.36" etag="u_2dN9rYb-nLYJo5N-yu" version="14.4.3" type="github">
  <diagram id="YecoOK0xQPCuccGGyCB8" name="Page-1">
    <mxGraphModel dx="315" dy="167" grid="1" gridSize="10" guides="1" tooltips="1" connect="1" arrows="1" fold="1" page="1" pageScale="1" pageWidth="850" pageHeight="1100" math="0" shadow="0">
      <root>
        <mxCell id="0" />
        <mxCell id="1" parent="0" />
        <mxCell id="Ow5HIsMCfoI9bz3gpbkk-1" value="" style="endArrow=none;html=1;" edge="1" parent="1">
          <mxGeometry width="50" height="50" relative="1" as="geometry">
            <mxPoint x="30" y="140" as="sourcePoint" />
            <mxPoint x="30" y="40" as="targetPoint" />
          </mxGeometry>
        </mxCell>
        <mxCell id="Ow5HIsMCfoI9bz3gpbkk-2" value="" style="endArrow=none;html=1;" edge="1" parent="1">
          <mxGeometry width="50" height="50" relative="1" as="geometry">
            <mxPoint x="30" y="40" as="sourcePoint" />
            <mxPoint x="170" y="40" as="targetPoint" />
          </mxGeometry>
        </mxCell>
        <mxCell id="Ow5HIsMCfoI9bz3gpbkk-3" value="" style="endArrow=none;html=1;" edge="1" parent="1">
          <mxGeometry width="50" height="50" relative="1" as="geometry">
            <mxPoint x="170" y="140" as="sourcePoint" />
            <mxPoint x="170" y="40" as="targetPoint" />
          </mxGeometry>
        </mxCell>
        <mxCell id="Ow5HIsMCfoI9bz3gpbkk-4" value="" style="endArrow=none;html=1;" edge="1" parent="1">
          <mxGeometry width="50" height="50" relative="1" as="geometry">
            <mxPoint x="30" y="140" as="sourcePoint" />
            <mxPoint x="170" y="140" as="targetPoint" />
          </mxGeometry>
        </mxCell>
        <mxCell id="Ow5HIsMCfoI9bz3gpbkk-5" value="3.50" style="text;html=1;strokeColor=none;fillColor=none;align=center;verticalAlign=middle;whiteSpace=wrap;rounded=0;" vertex="1" parent="1">
          <mxGeometry x="80" y="10" width="40" height="20" as="geometry" />
        </mxCell>
        <mxCell id="Ow5HIsMCfoI9bz3gpbkk-7" value="2.50" style="text;html=1;strokeColor=none;fillColor=none;align=center;verticalAlign=middle;whiteSpace=wrap;rounded=0;" vertex="1" parent="1">
          <mxGeometry x="170" y="80" width="40" height="20" as="geometry" />
        </mxCell>
        <mxCell id="Ow5HIsMCfoI9bz3gpbkk-8" value="" style="endArrow=none;html=1;" edge="1" parent="1">
          <mxGeometry width="50" height="50" relative="1" as="geometry">
            <mxPoint x="160" y="240" as="sourcePoint" />
            <mxPoint x="270" y="240" as="targetPoint" />
          </mxGeometry>
        </mxCell>
        <mxCell id="Ow5HIsMCfoI9bz3gpbkk-9" value="" style="endArrow=none;html=1;" edge="1" parent="1">
          <mxGeometry width="50" height="50" relative="1" as="geometry">
            <mxPoint x="160" y="340" as="sourcePoint" />
            <mxPoint x="160" y="240" as="targetPoint" />
          </mxGeometry>
        </mxCell>
        <mxCell id="Ow5HIsMCfoI9bz3gpbkk-10" value="" style="endArrow=none;html=1;" edge="1" parent="1">
          <mxGeometry width="50" height="50" relative="1" as="geometry">
            <mxPoint x="270" y="350" as="sourcePoint" />
            <mxPoint x="270" y="240" as="targetPoint" />
          </mxGeometry>
        </mxCell>
        <mxCell id="Ow5HIsMCfoI9bz3gpbkk-11" value="" style="endArrow=none;html=1;" edge="1" parent="1">
          <mxGeometry width="50" height="50" relative="1" as="geometry">
            <mxPoint x="160" y="340" as="sourcePoint" />
            <mxPoint x="230" y="340" as="targetPoint" />
          </mxGeometry>
        </mxCell>
        <mxCell id="Ow5HIsMCfoI9bz3gpbkk-12" value="" style="endArrow=none;html=1;" edge="1" parent="1">
          <mxGeometry width="50" height="50" relative="1" as="geometry">
            <mxPoint x="200" y="350" as="sourcePoint" />
            <mxPoint x="270" y="350" as="targetPoint" />
          </mxGeometry>
        </mxCell>
        <mxCell id="Ow5HIsMCfoI9bz3gpbkk-13" value="2.90" style="text;html=1;strokeColor=none;fillColor=none;align=center;verticalAlign=middle;whiteSpace=wrap;rounded=0;" vertex="1" parent="1">
          <mxGeometry x="200" y="210" width="40" height="20" as="geometry" />
        </mxCell>
        <mxCell id="Ow5HIsMCfoI9bz3gpbkk-14" value="1.20" style="text;html=1;strokeColor=none;fillColor=none;align=center;verticalAlign=middle;whiteSpace=wrap;rounded=0;" vertex="1" parent="1">
          <mxGeometry x="190" y="360" width="40" height="20" as="geometry" />
        </mxCell>
        <mxCell id="Ow5HIsMCfoI9bz3gpbkk-26" value="" style="endArrow=none;html=1;" edge="1" parent="1">
          <mxGeometry width="50" height="50" relative="1" as="geometry">
            <mxPoint x="400" y="239.99999999999994" as="sourcePoint" />
            <mxPoint x="400" y="139.99999999999994" as="targetPoint" />
          </mxGeometry>
        </mxCell>
        <mxCell id="Ow5HIsMCfoI9bz3gpbkk-27" value="" style="endArrow=none;html=1;" edge="1" parent="1">
          <mxGeometry width="50" height="50" relative="1" as="geometry">
            <mxPoint x="489.9999999999999" y="270" as="sourcePoint" />
            <mxPoint x="489.9999999999999" y="169.99999999999994" as="targetPoint" />
          </mxGeometry>
        </mxCell>
        <mxCell id="Ow5HIsMCfoI9bz3gpbkk-28" value="" style="endArrow=none;html=1;" edge="1" parent="1">
          <mxGeometry width="50" height="50" relative="1" as="geometry">
            <mxPoint x="400" y="139.99999999999994" as="sourcePoint" />
            <mxPoint x="490" y="170" as="targetPoint" />
          </mxGeometry>
        </mxCell>
        <mxCell id="Ow5HIsMCfoI9bz3gpbkk-29" value="" style="endArrow=none;html=1;" edge="1" parent="1">
          <mxGeometry width="50" height="50" relative="1" as="geometry">
            <mxPoint x="400" y="140" as="sourcePoint" />
            <mxPoint x="480" y="80" as="targetPoint" />
          </mxGeometry>
        </mxCell>
        <mxCell id="Ow5HIsMCfoI9bz3gpbkk-31" value="" style="endArrow=none;html=1;" edge="1" parent="1">
          <mxGeometry width="50" height="50" relative="1" as="geometry">
            <mxPoint x="489.9999999999999" y="169.99999999999994" as="sourcePoint" />
            <mxPoint x="570" y="109.99999999999994" as="targetPoint" />
          </mxGeometry>
        </mxCell>
        <mxCell id="Ow5HIsMCfoI9bz3gpbkk-32" value="" style="endArrow=none;html=1;" edge="1" parent="1">
          <mxGeometry width="50" height="50" relative="1" as="geometry">
            <mxPoint x="570" y="210" as="sourcePoint" />
            <mxPoint x="570" y="110" as="targetPoint" />
          </mxGeometry>
        </mxCell>
        <mxCell id="Ow5HIsMCfoI9bz3gpbkk-33" value="" style="endArrow=none;html=1;" edge="1" parent="1">
          <mxGeometry width="50" height="50" relative="1" as="geometry">
            <mxPoint x="479.9999999999999" y="79.99999999999994" as="sourcePoint" />
            <mxPoint x="570" y="110" as="targetPoint" />
          </mxGeometry>
        </mxCell>
        <mxCell id="Ow5HIsMCfoI9bz3gpbkk-36" value="" style="endArrow=none;html=1;" edge="1" parent="1">
          <mxGeometry width="50" height="50" relative="1" as="geometry">
            <mxPoint x="399.9999999999999" y="140" as="sourcePoint" />
            <mxPoint x="450" y="110" as="targetPoint" />
          </mxGeometry>
        </mxCell>
        <mxCell id="Ow5HIsMCfoI9bz3gpbkk-37" value="" style="endArrow=none;html=1;" edge="1" parent="1">
          <mxGeometry width="50" height="50" relative="1" as="geometry">
            <mxPoint x="479.9999999999999" y="80" as="sourcePoint" />
            <mxPoint x="530" y="50" as="targetPoint" />
          </mxGeometry>
        </mxCell>
        <mxCell id="Ow5HIsMCfoI9bz3gpbkk-38" value="" style="endArrow=none;html=1;" edge="1" parent="1">
          <mxGeometry width="50" height="50" relative="1" as="geometry">
            <mxPoint x="450" y="110" as="sourcePoint" />
            <mxPoint x="490" y="170" as="targetPoint" />
          </mxGeometry>
        </mxCell>
        <mxCell id="Ow5HIsMCfoI9bz3gpbkk-39" value="" style="endArrow=none;html=1;" edge="1" parent="1">
          <mxGeometry width="50" height="50" relative="1" as="geometry">
            <mxPoint x="530" y="50" as="sourcePoint" />
            <mxPoint x="570" y="110" as="targetPoint" />
          </mxGeometry>
        </mxCell>
        <mxCell id="Ow5HIsMCfoI9bz3gpbkk-40" value="" style="endArrow=none;html=1;" edge="1" parent="1">
          <mxGeometry width="50" height="50" relative="1" as="geometry">
            <mxPoint x="450" y="110" as="sourcePoint" />
            <mxPoint x="530" y="50" as="targetPoint" />
          </mxGeometry>
        </mxCell>
        <mxCell id="Ow5HIsMCfoI9bz3gpbkk-41" value="1.90" style="text;html=1;strokeColor=none;fillColor=none;align=center;verticalAlign=middle;whiteSpace=wrap;rounded=0;" vertex="1" parent="1">
          <mxGeometry x="470" y="120" width="40" height="20" as="geometry" />
        </mxCell>
        <mxCell id="Ow5HIsMCfoI9bz3gpbkk-42" value="" style="endArrow=classic;startArrow=classic;html=1;" edge="1" parent="1">
          <mxGeometry width="50" height="50" relative="1" as="geometry">
            <mxPoint x="450" y="160" as="sourcePoint" />
            <mxPoint x="450" y="110" as="targetPoint" />
          </mxGeometry>
        </mxCell>
        <mxCell id="Ow5HIsMCfoI9bz3gpbkk-43" value="1.00" style="text;html=1;strokeColor=none;fillColor=none;align=center;verticalAlign=middle;whiteSpace=wrap;rounded=0;" vertex="1" parent="1">
          <mxGeometry x="417" y="130" width="40" height="20" as="geometry" />
        </mxCell>
        <mxCell id="Ow5HIsMCfoI9bz3gpbkk-44" value="4 แผ่น" style="text;html=1;strokeColor=none;fillColor=none;align=center;verticalAlign=middle;whiteSpace=wrap;rounded=0;" vertex="1" parent="1">
          <mxGeometry x="310" y="290" width="40" height="20" as="geometry" />
        </mxCell>
        <mxCell id="Ow5HIsMCfoI9bz3gpbkk-45" value="" style="endArrow=classic;html=1;" edge="1" parent="1">
          <mxGeometry width="50" height="50" relative="1" as="geometry">
            <mxPoint x="320" y="410" as="sourcePoint" />
            <mxPoint x="280" y="360" as="targetPoint" />
          </mxGeometry>
        </mxCell>
        <mxCell id="Ow5HIsMCfoI9bz3gpbkk-46" value="ลม" style="text;html=1;strokeColor=none;fillColor=none;align=center;verticalAlign=middle;whiteSpace=wrap;rounded=0;" vertex="1" parent="1">
          <mxGeometry x="320" y="380" width="40" height="20" as="geometry" />
        </mxCell>
        <mxCell id="Ow5HIsMCfoI9bz3gpbkk-47" value="เบียร์ 0923898147" style="text;html=1;strokeColor=none;fillColor=none;align=center;verticalAlign=middle;whiteSpace=wrap;rounded=0;fontSize=17;" vertex="1" parent="1">
          <mxGeometry x="19" y="464" width="195" height="30" as="geometry" />
        </mxCell>
        <mxCell id="Ow5HIsMCfoI9bz3gpbkk-48" value="1.90" style="text;html=1;strokeColor=none;fillColor=none;align=center;verticalAlign=middle;whiteSpace=wrap;rounded=0;" vertex="1" parent="1">
          <mxGeometry x="390" y="100" width="40" height="20" as="geometry" />
        </mxCell>
        <mxCell id="Ow5HIsMCfoI9bz3gpbkk-49" value="" style="endArrow=none;html=1;" edge="1" parent="1">
          <mxGeometry width="50" height="50" relative="1" as="geometry">
            <mxPoint x="509.9999999999998" y="490" as="sourcePoint" />
            <mxPoint x="509.9999999999998" y="390" as="targetPoint" />
          </mxGeometry>
        </mxCell>
        <mxCell id="Ow5HIsMCfoI9bz3gpbkk-50" value="" style="endArrow=none;html=1;" edge="1" parent="1">
          <mxGeometry width="50" height="50" relative="1" as="geometry">
            <mxPoint x="599.9999999999998" y="520" as="sourcePoint" />
            <mxPoint x="599.9999999999998" y="420" as="targetPoint" />
          </mxGeometry>
        </mxCell>
        <mxCell id="Ow5HIsMCfoI9bz3gpbkk-51" value="" style="endArrow=none;html=1;" edge="1" parent="1">
          <mxGeometry width="50" height="50" relative="1" as="geometry">
            <mxPoint x="509.9999999999998" y="390" as="sourcePoint" />
            <mxPoint x="599.9999999999998" y="420" as="targetPoint" />
          </mxGeometry>
        </mxCell>
        <mxCell id="Ow5HIsMCfoI9bz3gpbkk-52" value="" style="endArrow=none;html=1;" edge="1" parent="1">
          <mxGeometry width="50" height="50" relative="1" as="geometry">
            <mxPoint x="509.9999999999998" y="390" as="sourcePoint" />
            <mxPoint x="589.9999999999998" y="330" as="targetPoint" />
          </mxGeometry>
        </mxCell>
        <mxCell id="Ow5HIsMCfoI9bz3gpbkk-53" value="" style="endArrow=none;html=1;" edge="1" parent="1">
          <mxGeometry width="50" height="50" relative="1" as="geometry">
            <mxPoint x="599.9999999999998" y="420" as="sourcePoint" />
            <mxPoint x="679.9999999999998" y="360" as="targetPoint" />
          </mxGeometry>
        </mxCell>
        <mxCell id="Ow5HIsMCfoI9bz3gpbkk-54" value="" style="endArrow=none;html=1;" edge="1" parent="1">
          <mxGeometry width="50" height="50" relative="1" as="geometry">
            <mxPoint x="679.9999999999998" y="460" as="sourcePoint" />
            <mxPoint x="679.9999999999998" y="360" as="targetPoint" />
          </mxGeometry>
        </mxCell>
        <mxCell id="Ow5HIsMCfoI9bz3gpbkk-55" value="" style="endArrow=none;html=1;" edge="1" parent="1">
          <mxGeometry width="50" height="50" relative="1" as="geometry">
            <mxPoint x="589.9999999999998" y="330" as="sourcePoint" />
            <mxPoint x="679.9999999999998" y="360" as="targetPoint" />
          </mxGeometry>
        </mxCell>
        <mxCell id="Ow5HIsMCfoI9bz3gpbkk-56" value="" style="endArrow=none;html=1;" edge="1" parent="1">
          <mxGeometry width="50" height="50" relative="1" as="geometry">
            <mxPoint x="509.9999999999998" y="390" as="sourcePoint" />
            <mxPoint x="559.9999999999998" y="360" as="targetPoint" />
          </mxGeometry>
        </mxCell>
        <mxCell id="Ow5HIsMCfoI9bz3gpbkk-57" value="" style="endArrow=none;html=1;" edge="1" parent="1">
          <mxGeometry width="50" height="50" relative="1" as="geometry">
            <mxPoint x="589.9999999999998" y="330" as="sourcePoint" />
            <mxPoint x="639.9999999999998" y="300" as="targetPoint" />
          </mxGeometry>
        </mxCell>
        <mxCell id="Ow5HIsMCfoI9bz3gpbkk-58" value="" style="endArrow=none;html=1;" edge="1" parent="1">
          <mxGeometry width="50" height="50" relative="1" as="geometry">
            <mxPoint x="559.9999999999998" y="360" as="sourcePoint" />
            <mxPoint x="599.9999999999998" y="420" as="targetPoint" />
          </mxGeometry>
        </mxCell>
        <mxCell id="Ow5HIsMCfoI9bz3gpbkk-59" value="" style="endArrow=none;html=1;" edge="1" parent="1">
          <mxGeometry width="50" height="50" relative="1" as="geometry">
            <mxPoint x="639.9999999999998" y="300" as="sourcePoint" />
            <mxPoint x="679.9999999999998" y="360" as="targetPoint" />
          </mxGeometry>
        </mxCell>
        <mxCell id="Ow5HIsMCfoI9bz3gpbkk-60" value="" style="endArrow=none;html=1;" edge="1" parent="1">
          <mxGeometry width="50" height="50" relative="1" as="geometry">
            <mxPoint x="559.9999999999998" y="360" as="sourcePoint" />
            <mxPoint x="639.9999999999998" y="300" as="targetPoint" />
          </mxGeometry>
        </mxCell>
        <mxCell id="Ow5HIsMCfoI9bz3gpbkk-65" value="" style="ellipse;whiteSpace=wrap;html=1;aspect=fixed;fontSize=17;fillColor=none;strokeColor=#FF3333;strokeWidth=2;" vertex="1" parent="1">
          <mxGeometry x="550" y="420" width="10" height="10" as="geometry" />
        </mxCell>
      </root>
    </mxGraphModel>
  </diagram>
</mxfile>
